<?xml version="1.0" encoding="UTF-8" ?>
<!DOCTYPE svg PUBLIC "-//W3C//DTD SVG 1.1//EN" "http://www.w3.org/Graphics/SVG/1.1/DTD/svg11.dtd">
<svg width="100pt" height="100pt" viewBox="0 0 100 100" version="1.1" xmlns="http://www.w3.org/2000/svg">
<g id="#92575fff">
<path fill="#92575f" opacity="1.00" d=" M 28.26 14.94 C 37.38 9.63 48.55 7.16 58.89 9.99 C 68.42 12.36 77.42 17.86 82.77 26.25 C 90.20 36.42 92.17 50.24 88.28 62.17 C 84.85 73.14 76.55 82.42 66.06 87.11 C 57.58 90.76 47.85 91.73 38.95 89.03 C 30.16 86.73 22.55 81.05 16.93 74.03 C 9.16 63.43 7.20 49.17 11.06 36.69 C 13.01 38.14 15.06 39.55 16.57 41.50 C 20.41 46.32 19.58 53.46 24.15 57.86 C 29.01 62.90 33.95 67.85 38.86 72.85 C 40.60 71.96 42.73 71.47 43.93 69.80 C 45.56 67.86 45.23 65.18 45.49 62.83 C 50.41 67.15 56.28 71.35 63.12 71.20 C 65.20 70.01 66.79 68.12 68.99 67.13 C 70.72 66.17 72.81 65.69 74.20 64.21 C 76.31 58.81 76.57 52.68 75.00 47.10 C 74.24 44.77 72.22 43.20 70.58 41.50 C 64.89 36.07 59.28 30.21 52.02 26.90 C 43.98 23.16 35.46 20.25 28.26 14.94 Z" />
</g>
<g id="#f8f7fbff">
<path fill="#f8f7fb" opacity="1.00" d=" M 12.96 17.05 C 22.58 6.01 37.31 -0.64 52.00 0.06 C 61.85 0.26 71.43 3.91 79.43 9.54 C 92.85 19.20 100.60 35.88 100.00 52.34 L 100.00 52.65 C 99.13 65.76 93.18 78.53 83.44 87.41 C 75.66 94.45 65.55 98.62 55.21 100.00 L 45.46 100.00 C 34.96 98.66 24.70 94.34 16.93 87.05 C 6.70 78.01 0.94 64.49 0.40 50.95 C 0.31 38.64 4.88 26.35 12.96 17.05 M 24.21 13.21 C 24.38 15.55 27.10 16.90 28.64 18.49 C 37.60 24.71 48.66 27.11 57.57 33.45 C 61.42 36.22 64.68 39.68 68.10 42.94 C 70.30 45.21 73.31 47.46 72.84 51.04 C 65.79 47.42 59.99 41.97 54.16 36.71 C 54.27 38.05 54.44 39.48 55.66 40.29 C 61.17 45.54 67.47 49.84 73.90 53.87 C 73.39 55.20 72.86 56.53 72.33 57.85 C 64.48 53.87 57.69 48.28 50.80 42.90 C 50.99 43.50 51.35 44.70 51.53 45.29 C 57.97 51.09 65.34 55.79 72.88 60.02 C 72.61 63.31 68.56 65.68 65.88 63.30 C 61.41 59.27 56.28 56.10 51.60 52.33 C 50.16 51.13 48.52 50.23 46.65 49.93 C 51.92 55.46 58.71 59.19 64.57 64.02 C 64.61 65.18 64.64 66.34 64.66 67.50 C 63.13 68.01 61.51 68.94 59.86 68.23 C 55.29 66.99 51.59 63.88 47.99 60.96 C 44.59 58.17 40.70 56.09 37.12 53.57 C 36.39 53.62 34.93 53.74 34.21 53.80 C 34.73 53.97 35.77 54.30 36.30 54.47 C 38.21 57.39 40.03 60.39 42.14 63.19 C 43.07 65.74 42.35 68.32 40.10 69.93 C 35.33 65.36 30.68 60.66 26.09 55.90 C 21.76 51.84 23.08 45.03 19.26 40.64 C 16.24 37.08 13.00 33.55 9.00 31.08 C 8.66 32.34 8.31 33.61 7.95 34.87 C 7.57 35.88 7.18 36.89 6.79 37.90 C 4.40 47.60 5.02 57.96 8.71 67.26 C 13.13 77.39 21.12 86.01 31.21 90.63 C 42.42 95.94 55.90 96.18 67.29 91.28 C 78.48 86.67 87.54 77.24 91.81 65.93 C 92.18 64.91 92.54 63.89 92.89 62.87 C 93.36 60.94 93.78 59.01 94.27 57.09 C 94.77 52.09 94.71 47.05 94.24 42.05 C 93.14 37.61 91.78 33.23 89.87 29.07 C 87.19 24.59 84.21 20.21 80.37 16.65 C 65.50 2.57 40.58 0.65 24.21 13.21 Z" />
</g>
<g id="#5b2325ff">
<path fill="#5b2325" opacity="1.00" d=" M 24.21 13.21 C 40.58 0.65 65.50 2.57 80.37 16.65 C 84.21 20.21 87.19 24.59 89.87 29.07 C 91.78 33.23 93.14 37.61 94.24 42.05 C 94.71 47.05 94.77 52.09 94.27 57.09 C 93.78 59.01 93.36 60.94 92.89 62.87 C 92.54 63.89 92.18 64.91 91.81 65.93 C 87.54 77.24 78.48 86.67 67.29 91.28 C 55.90 96.18 42.42 95.94 31.21 90.63 C 21.12 86.01 13.13 77.39 8.71 67.26 C 5.02 57.96 4.40 47.60 6.79 37.90 C 7.18 36.89 7.57 35.88 7.95 34.87 C 8.31 33.61 8.66 32.34 9.00 31.08 C 13.00 33.55 16.24 37.08 19.26 40.64 C 23.08 45.03 21.76 51.84 26.09 55.90 C 30.68 60.66 35.33 65.36 40.10 69.93 C 42.35 68.32 43.07 65.74 42.14 63.19 C 40.03 60.39 38.21 57.39 36.30 54.47 C 35.77 54.30 34.73 53.97 34.21 53.80 C 34.93 53.74 36.39 53.62 37.12 53.57 C 40.70 56.09 44.59 58.17 47.99 60.96 C 51.59 63.88 55.29 66.99 59.86 68.23 C 61.51 68.94 63.13 68.01 64.66 67.50 C 64.64 66.34 64.61 65.18 64.57 64.02 C 58.71 59.19 51.92 55.46 46.65 49.93 C 48.52 50.23 50.16 51.13 51.60 52.33 C 56.28 56.10 61.41 59.27 65.88 63.30 C 68.56 65.68 72.61 63.31 72.88 60.02 C 65.34 55.79 57.97 51.09 51.53 45.29 C 51.35 44.70 50.99 43.50 50.80 42.90 C 57.69 48.28 64.48 53.87 72.33 57.85 C 72.86 56.53 73.39 55.20 73.90 53.87 C 67.47 49.84 61.17 45.54 55.66 40.29 C 54.44 39.48 54.27 38.05 54.16 36.71 C 59.99 41.97 65.79 47.42 72.84 51.04 C 73.31 47.46 70.30 45.21 68.10 42.94 C 64.68 39.68 61.42 36.22 57.57 33.45 C 48.66 27.11 37.60 24.71 28.64 18.49 C 27.10 16.90 24.38 15.55 24.21 13.21 M 28.26 14.94 C 35.46 20.25 43.98 23.16 52.02 26.90 C 59.28 30.21 64.89 36.07 70.58 41.50 C 72.22 43.20 74.24 44.77 75.00 47.10 C 76.57 52.68 76.31 58.81 74.20 64.21 C 72.81 65.69 70.72 66.17 68.99 67.13 C 66.79 68.12 65.20 70.01 63.12 71.20 C 56.28 71.35 50.41 67.15 45.49 62.83 C 45.23 65.18 45.56 67.86 43.93 69.80 C 42.73 71.47 40.60 71.96 38.86 72.85 C 33.95 67.85 29.01 62.90 24.15 57.86 C 19.58 53.46 20.41 46.32 16.57 41.50 C 15.06 39.55 13.01 38.14 11.06 36.69 C 7.20 49.17 9.16 63.43 16.93 74.03 C 22.55 81.05 30.16 86.73 38.95 89.03 C 47.85 91.73 57.58 90.76 66.06 87.11 C 76.55 82.42 84.85 73.14 88.28 62.17 C 92.17 50.24 90.20 36.42 82.77 26.25 C 77.42 17.86 68.42 12.36 58.89 9.99 C 48.55 7.16 37.38 9.63 28.26 14.94 Z" />
</g>
</svg>
