<?xml version="1.0" encoding="UTF-8" ?>
<!DOCTYPE svg PUBLIC "-//W3C//DTD SVG 1.1//EN" "http://www.w3.org/Graphics/SVG/1.1/DTD/svg11.dtd">
<svg width="100pt" height="100pt" viewBox="0 0 100 100" version="1.1" xmlns="http://www.w3.org/2000/svg">
<g id="#91595eff">
</g>
<g id="#fff6fbff">
<path fill="#fff6fb" opacity="1.00" d=" M 51.26 0.00 L 51.56 0.00 C 62.01 0.69 72.40 4.14 80.63 10.73 C 78.49 11.22 76.35 11.70 74.22 12.18 C 64.55 5.91 52.38 3.28 41.06 5.78 C 30.32 7.83 20.36 14.02 13.91 22.88 C 6.23 32.99 3.13 46.53 5.86 58.96 C 8.94 74.89 21.43 88.51 37.02 93.02 C 53.63 98.20 72.72 92.41 83.92 79.15 C 84.20 80.86 83.97 82.56 83.46 84.19 C 83.86 84.54 84.65 85.24 85.04 85.59 C 77.12 93.54 66.45 98.28 55.45 100.00 L 44.25 100.00 C 35.82 98.50 27.50 95.57 20.60 90.39 C 8.46 81.56 0.74 66.99 0.19 51.99 C -0.33 38.08 5.21 23.95 15.38 14.38 C 24.66 4.85 38.07 -0.04 51.26 0.00 Z" />
</g>
<g id="#572324ff">
<path fill="#572324" opacity="1.00" d=" M 41.06 5.78 C 52.38 3.28 64.55 5.91 74.22 12.18 C 75.37 12.91 76.51 13.68 77.63 14.47 C 72.68 18.53 68.02 22.98 62.85 26.75 C 56.20 26.83 49.46 26.45 42.97 28.26 C 38.63 29.53 33.09 29.93 30.43 34.05 C 28.15 40.51 27.47 47.48 27.48 54.30 C 28.40 54.43 29.31 54.58 30.21 54.73 C 30.76 50.01 31.74 45.36 32.85 40.74 C 33.05 39.50 33.68 38.44 34.69 37.70 C 33.41 44.98 31.00 52.15 31.33 59.63 C 32.56 60.73 33.81 61.81 35.07 62.87 C 35.96 56.45 36.41 49.54 39.77 43.85 C 38.84 51.00 35.94 57.86 36.40 65.20 C 36.81 65.72 37.64 66.78 38.05 67.31 C 38.86 67.48 40.48 67.83 41.30 68.00 C 41.67 62.11 41.98 56.09 43.94 50.47 C 44.88 55.66 42.30 60.75 42.60 65.98 C 42.13 69.23 44.47 73.02 48.02 72.84 C 52.32 72.57 56.67 70.87 59.84 67.92 C 62.90 64.26 61.81 58.94 59.98 54.97 C 58.66 56.30 57.35 57.64 56.05 58.98 C 56.76 60.17 57.40 61.39 58.05 62.61 C 57.10 61.98 56.11 61.43 55.08 60.95 C 53.93 62.60 52.70 64.26 50.93 65.29 C 51.76 63.11 53.21 61.20 53.67 58.89 C 54.22 56.78 53.86 54.23 55.68 52.68 C 55.46 54.10 55.01 56.95 54.79 58.38 C 56.16 56.92 57.55 55.48 58.95 54.06 C 58.81 53.56 58.54 52.56 58.40 52.06 C 60.68 53.56 62.54 55.57 63.76 58.02 C 63.50 58.40 63.00 59.16 62.75 59.54 C 62.73 62.66 63.36 66.38 60.81 68.76 C 58.45 71.74 54.05 71.81 51.71 74.72 C 57.81 74.03 63.66 71.76 69.23 69.28 C 75.00 64.66 75.04 56.65 75.63 49.91 C 81.48 45.78 87.26 41.54 93.05 37.33 C 96.85 51.72 93.73 67.81 83.92 79.15 C 72.72 92.41 53.63 98.20 37.02 93.02 C 21.43 88.51 8.94 74.89 5.86 58.96 C 3.13 46.53 6.23 32.99 13.91 22.88 C 20.36 14.02 30.32 7.83 41.06 5.78 M 32.58 12.64 C 21.36 17.54 12.72 28.01 9.98 39.95 C 4.59 58.93 15.86 80.82 34.32 87.67 C 46.72 92.89 61.62 91.09 72.61 83.42 C 81.56 76.99 88.29 67.08 89.60 56.01 C 90.02 51.65 91.04 47.01 89.07 42.87 C 85.30 45.79 81.23 48.34 77.59 51.40 C 77.07 57.15 76.86 63.33 73.28 68.18 C 70.63 72.67 65.02 73.21 60.55 74.80 C 57.81 75.55 55.06 77.16 52.16 76.61 C 49.91 75.58 47.51 75.04 45.08 74.67 C 43.02 74.42 42.15 72.28 41.06 70.82 C 39.09 69.93 36.56 69.58 35.41 67.52 C 33.35 63.87 28.84 61.99 28.51 57.36 C 27.10 56.19 24.91 55.29 24.99 53.12 C 25.05 46.88 25.88 40.62 27.59 34.62 C 28.72 30.96 32.34 28.94 35.74 27.75 C 43.98 25.13 52.66 23.89 61.31 24.57 C 64.93 22.62 67.79 19.45 71.07 16.97 C 70.93 16.41 70.65 15.30 70.50 14.74 C 59.19 7.93 44.56 7.05 32.58 12.64 Z" />
</g>
<g id="#91565fff">
<path fill="#91565f" opacity="1.00" d=" M 32.58 12.64 C 44.56 7.05 59.19 7.93 70.50 14.74 C 70.65 15.30 70.93 16.41 71.07 16.97 C 67.79 19.45 64.93 22.62 61.31 24.57 C 52.66 23.89 43.98 25.13 35.74 27.75 C 32.34 28.94 28.72 30.96 27.59 34.62 C 25.88 40.62 25.05 46.88 24.99 53.12 C 24.91 55.29 27.10 56.19 28.51 57.36 C 28.84 61.99 33.35 63.87 35.41 67.52 C 36.56 69.58 39.09 69.93 41.06 70.82 C 42.15 72.28 43.02 74.42 45.08 74.67 C 47.51 75.04 49.91 75.58 52.16 76.61 C 55.06 77.16 57.81 75.55 60.55 74.80 C 65.02 73.21 70.63 72.67 73.28 68.18 C 76.86 63.33 77.07 57.15 77.59 51.40 C 81.23 48.34 85.30 45.79 89.07 42.87 C 91.04 47.01 90.02 51.65 89.60 56.01 C 88.29 67.08 81.56 76.99 72.61 83.42 C 61.62 91.09 46.72 92.89 34.32 87.67 C 15.86 80.82 4.59 58.93 9.98 39.95 C 12.72 28.01 21.36 17.54 32.58 12.64 Z" />
</g>
<g id="#f8f7fcff">
<path fill="#f8f7fc" opacity="1.00" d=" M 74.22 12.18 C 76.35 11.70 78.49 11.22 80.63 10.73 C 90.66 18.66 97.54 30.37 99.35 43.05 C 101.57 58.42 96.10 74.68 85.04 85.59 C 84.65 85.24 83.86 84.54 83.46 84.19 C 83.97 82.56 84.20 80.86 83.92 79.15 C 93.73 67.81 96.85 51.72 93.05 37.33 C 87.26 41.54 81.48 45.78 75.63 49.91 C 75.04 56.65 75.00 64.66 69.23 69.28 C 63.66 71.76 57.81 74.03 51.71 74.72 C 54.05 71.81 58.45 71.74 60.81 68.76 C 63.36 66.38 62.73 62.66 62.75 59.54 C 63.00 59.16 63.50 58.40 63.76 58.02 C 62.54 55.57 60.68 53.56 58.40 52.06 C 58.54 52.56 58.81 53.56 58.95 54.06 C 57.55 55.48 56.16 56.92 54.79 58.38 C 55.01 56.95 55.46 54.10 55.68 52.68 C 53.86 54.23 54.22 56.78 53.67 58.89 C 53.21 61.20 51.76 63.11 50.93 65.29 C 52.70 64.26 53.93 62.60 55.08 60.95 C 56.11 61.43 57.10 61.98 58.05 62.61 C 57.40 61.39 56.76 60.17 56.05 58.98 C 57.35 57.64 58.66 56.30 59.98 54.97 C 61.81 58.94 62.90 64.26 59.84 67.92 C 56.67 70.87 52.32 72.57 48.02 72.84 C 44.47 73.02 42.13 69.23 42.60 65.98 C 42.30 60.75 44.88 55.66 43.94 50.47 C 41.98 56.09 41.67 62.11 41.30 68.00 C 40.48 67.83 38.86 67.48 38.05 67.31 C 37.64 66.78 36.81 65.72 36.40 65.20 C 35.94 57.86 38.84 51.00 39.77 43.85 C 36.41 49.54 35.96 56.45 35.07 62.87 C 33.81 61.81 32.56 60.73 31.33 59.63 C 31.00 52.15 33.41 44.98 34.69 37.70 C 33.68 38.44 33.05 39.50 32.85 40.74 C 31.74 45.36 30.76 50.01 30.21 54.73 C 29.31 54.58 28.40 54.43 27.48 54.30 C 27.47 47.48 28.15 40.51 30.43 34.05 C 33.09 29.93 38.63 29.53 42.97 28.26 C 49.46 26.45 56.20 26.83 62.85 26.75 C 68.02 22.98 72.68 18.53 77.63 14.47 C 76.51 13.68 75.37 12.91 74.22 12.18 Z" />
</g>
</svg>
