<?xml version="1.0" encoding="UTF-8" ?>
<!DOCTYPE svg PUBLIC "-//W3C//DTD SVG 1.1//EN" "http://www.w3.org/Graphics/SVG/1.1/DTD/svg11.dtd">
<svg width="100pt" height="100pt" viewBox="0 0 100 100" version="1.1" xmlns="http://www.w3.org/2000/svg">
<g id="#91575fff">
<path fill="#91575f" opacity="1.00" d=" M 38.62 10.51 C 44.97 8.49 51.72 8.93 58.22 9.84 C 72.06 12.98 84.54 23.68 88.20 37.61 C 85.22 37.44 82.17 37.53 79.27 36.70 C 73.98 33.62 68.83 28.43 62.20 29.44 C 57.39 30.71 53.49 34.20 50.84 38.32 C 44.11 35.80 37.14 33.95 30.35 31.60 C 27.22 30.60 23.54 29.14 20.63 31.48 C 20.32 32.67 20.01 33.87 19.68 35.07 C 20.77 37.57 22.60 39.66 25.11 40.82 C 31.54 44.07 38.32 46.62 44.61 50.18 C 36.12 51.04 27.65 52.20 19.21 53.37 C 14.36 54.14 14.18 62.11 19.07 63.18 C 24.76 64.02 30.54 63.23 36.27 63.45 C 36.67 67.21 39.35 69.61 42.14 71.79 C 43.77 75.17 46.96 78.25 51.00 77.84 C 54.69 78.39 57.97 76.67 61.26 75.34 C 65.20 74.96 69.41 76.04 73.13 74.21 C 76.61 72.37 79.11 69.22 81.91 66.55 C 83.56 66.54 85.20 66.53 86.85 66.53 C 82.23 76.53 73.65 84.75 63.14 88.30 C 50.88 93.02 36.56 90.45 25.88 83.08 C 10.73 72.62 4.53 51.07 12.03 34.22 C 16.58 22.77 26.74 13.76 38.62 10.51 Z" />
</g>
<g id="#f9f7fbff">
<path fill="#f9f7fb" opacity="1.00" d=" M 46.82 0.00 L 53.58 0.00 C 66.82 1.18 79.64 7.49 88.13 17.79 C 95.28 26.06 99.27 36.80 100.00 47.65 L 100.00 53.49 C 98.77 67.50 91.88 81.15 80.56 89.66 C 73.52 95.29 64.82 98.49 56.00 100.00 L 45.76 100.00 C 29.33 98.51 13.89 88.42 6.26 73.75 C 2.42 66.70 0.44 58.78 0.00 50.79 L 0.00 49.88 C 0.52 37.88 4.65 25.81 12.90 16.92 C 21.40 7.08 33.91 1.07 46.82 0.00 M 34.67 7.73 C 19.19 13.05 7.62 27.69 5.47 43.85 C 4.68 51.37 5.24 59.16 8.13 66.22 C 13.64 80.99 27.53 92.13 43.10 94.44 C 50.51 95.35 58.18 94.98 65.20 92.29 C 78.05 87.66 88.57 76.82 92.62 63.76 C 88.51 63.82 84.39 63.98 80.29 64.28 C 77.97 67.27 75.40 70.19 72.16 72.20 C 69.53 73.22 66.61 72.77 63.85 72.77 C 65.34 70.69 66.75 68.49 66.51 65.80 C 66.15 65.27 65.42 64.23 65.06 63.71 C 64.50 63.54 63.38 63.19 62.83 63.02 C 62.82 62.28 62.80 60.82 62.79 60.09 C 62.42 59.71 61.68 58.97 61.31 58.60 C 56.80 57.95 52.42 59.46 47.96 59.83 C 39.69 61.08 31.30 61.24 22.95 61.26 C 21.38 61.39 19.88 60.93 18.45 60.32 C 18.24 59.69 17.81 58.44 17.59 57.82 C 17.91 57.29 18.54 56.24 18.85 55.71 C 28.77 54.31 38.91 53.95 48.63 51.54 C 48.79 49.44 46.81 48.60 45.35 47.78 C 38.47 44.22 31.33 41.20 24.46 37.64 C 22.65 36.73 22.04 34.67 22.69 32.80 C 24.96 31.72 27.15 33.34 29.33 33.90 C 36.54 36.16 43.71 38.55 50.95 40.72 C 50.17 44.88 52.23 48.71 53.57 52.52 C 54.23 54.54 57.07 54.97 58.51 53.52 C 61.56 50.88 61.13 46.52 61.95 42.94 L 63.88 42.62 C 63.83 46.14 62.63 50.14 64.77 53.28 C 66.74 55.65 69.98 56.84 73.03 56.44 C 70.26 55.52 66.84 54.89 65.53 51.92 C 64.43 48.46 65.49 44.83 65.56 41.30 C 63.94 41.33 62.32 41.40 60.71 41.48 C 60.12 44.00 59.79 46.58 59.34 49.13 C 59.01 51.15 57.22 53.55 54.96 52.44 C 54.40 49.53 52.82 46.94 52.32 44.03 C 52.22 37.59 58.21 32.84 64.02 31.55 C 69.91 32.12 74.17 36.85 79.23 39.36 C 84.02 39.91 88.87 39.89 93.69 39.76 C 89.68 22.02 74.08 7.52 55.93 5.38 C 48.80 4.81 41.37 4.89 34.67 7.73 Z" />
<path fill="#f9f7fb" opacity="1.00" d=" M 39.19 62.60 C 45.12 61.91 51.05 61.19 56.94 60.23 C 58.59 59.86 60.23 60.29 61.77 60.88 C 57.89 66.05 51.30 69.05 44.92 69.29 C 41.36 69.50 38.64 66.00 39.19 62.60 Z" />
<path fill="#f9f7fb" opacity="1.00" d=" M 45.32 70.99 C 51.09 70.52 56.78 68.30 61.06 64.35 C 63.69 64.23 66.07 66.76 64.22 69.18 C 60.19 74.72 51.38 77.89 45.47 73.36 C 45.43 72.77 45.35 71.59 45.32 70.99 Z" />
</g>
<g id="#5c2424ff">
<path fill="#5c2424" opacity="1.00" d=" M 34.67 7.73 C 41.37 4.89 48.80 4.81 55.93 5.38 C 74.08 7.52 89.68 22.02 93.69 39.76 C 88.87 39.89 84.02 39.91 79.23 39.36 C 74.17 36.85 69.91 32.12 64.02 31.55 C 58.21 32.84 52.22 37.59 52.32 44.03 C 52.82 46.94 54.40 49.53 54.96 52.44 C 57.22 53.55 59.01 51.15 59.34 49.13 C 59.79 46.58 60.12 44.00 60.71 41.48 C 62.32 41.40 63.94 41.33 65.56 41.30 C 65.49 44.83 64.43 48.46 65.53 51.92 C 66.84 54.89 70.26 55.52 73.03 56.44 C 69.98 56.84 66.74 55.65 64.77 53.28 C 62.63 50.14 63.83 46.14 63.88 42.62 L 61.95 42.94 C 61.13 46.52 61.56 50.88 58.51 53.52 C 57.07 54.97 54.23 54.54 53.57 52.52 C 52.23 48.71 50.17 44.88 50.95 40.72 C 43.71 38.55 36.54 36.16 29.33 33.90 C 27.15 33.34 24.96 31.72 22.69 32.80 C 22.04 34.67 22.65 36.73 24.46 37.64 C 31.33 41.20 38.47 44.22 45.35 47.78 C 46.81 48.60 48.79 49.44 48.63 51.54 C 38.91 53.95 28.77 54.31 18.85 55.71 C 18.54 56.24 17.91 57.29 17.59 57.82 C 17.81 58.44 18.24 59.69 18.45 60.32 C 19.88 60.93 21.38 61.39 22.95 61.26 C 31.30 61.24 39.69 61.08 47.96 59.83 C 52.42 59.46 56.80 57.95 61.31 58.60 C 61.68 58.97 62.42 59.71 62.79 60.09 C 62.80 60.82 62.82 62.28 62.83 63.02 C 63.38 63.19 64.50 63.54 65.06 63.71 C 65.42 64.23 66.15 65.27 66.51 65.80 C 66.75 68.49 65.34 70.69 63.85 72.77 C 66.61 72.77 69.53 73.22 72.16 72.20 C 75.40 70.19 77.97 67.27 80.29 64.28 C 84.39 63.98 88.51 63.82 92.62 63.76 C 88.57 76.82 78.05 87.66 65.20 92.29 C 58.18 94.98 50.51 95.35 43.10 94.44 C 27.53 92.13 13.64 80.99 8.13 66.22 C 5.24 59.16 4.68 51.37 5.47 43.85 C 7.62 27.69 19.19 13.05 34.67 7.73 M 38.62 10.51 C 26.74 13.76 16.58 22.77 12.03 34.22 C 4.53 51.07 10.73 72.62 25.88 83.08 C 36.56 90.45 50.88 93.02 63.14 88.30 C 73.65 84.75 82.23 76.53 86.85 66.53 C 85.20 66.53 83.56 66.54 81.91 66.55 C 79.11 69.22 76.61 72.37 73.13 74.21 C 69.41 76.04 65.20 74.96 61.26 75.34 C 57.97 76.67 54.69 78.39 51.00 77.84 C 46.96 78.25 43.77 75.17 42.14 71.79 C 39.35 69.61 36.67 67.21 36.27 63.45 C 30.54 63.23 24.76 64.02 19.07 63.18 C 14.18 62.11 14.36 54.14 19.21 53.37 C 27.65 52.20 36.12 51.04 44.61 50.18 C 38.32 46.62 31.54 44.07 25.11 40.82 C 22.60 39.66 20.77 37.57 19.68 35.07 C 20.01 33.87 20.32 32.67 20.63 31.48 C 23.54 29.14 27.22 30.60 30.35 31.60 C 37.14 33.95 44.11 35.80 50.84 38.32 C 53.49 34.20 57.39 30.71 62.20 29.44 C 68.83 28.43 73.98 33.62 79.27 36.70 C 82.17 37.53 85.22 37.44 88.20 37.61 C 84.54 23.68 72.06 12.98 58.22 9.84 C 51.72 8.93 44.97 8.49 38.62 10.51 M 39.19 62.60 C 38.64 66.00 41.36 69.50 44.92 69.29 C 51.30 69.05 57.89 66.05 61.77 60.88 C 60.23 60.29 58.59 59.86 56.94 60.23 C 51.05 61.19 45.12 61.91 39.19 62.60 M 45.32 70.99 C 45.35 71.59 45.43 72.77 45.47 73.36 C 51.38 77.89 60.19 74.72 64.22 69.18 C 66.07 66.76 63.69 64.23 61.06 64.35 C 56.78 68.30 51.09 70.52 45.32 70.99 Z" />
</g>
</svg>
